<?xml version="1.0" encoding="UTF-8"?>
<svg id="a" data-name="Layer_1" xmlns="http://www.w3.org/2000/svg" width="1000" height="1000" viewBox="0 0 1000 1000">
  <polygon points="177.446 310.596 397.962 179.213 398.958 436.32 177.446 310.596" fill="#2c94d2"/>
  <polygon points="397.963 179.495 177.447 310.878 176.451 53.771 397.963 179.495" fill="#00b9e0"/>
  <polygon points="178.442 567.703 398.958 436.32 399.954 693.427 178.442 567.703" fill="#005c9e"/>
  <polygon points="398.959 436.602 178.443 567.985 177.447 310.878 398.959 436.602" fill="#2374bb"/>
  <polygon points="179.438 824.81 399.954 693.427 400.95 950.534 179.438 824.81" fill="#2374bb"/>
  <polygon points="399.955 693.709 179.439 825.092 178.443 567.985 399.955 693.709" fill="#2c94d2"/>
  <polygon points="657.776 949.539 526.392 729.023 783.499 728.027 657.776 949.539" fill="#2374bb"/>
  <polygon points="526.674 729.022 658.057 949.538 400.95 950.534 526.674 729.022" fill="#005c9e"/>
  <polygon points="783.217 728.028 651.834 507.512 908.941 506.516 783.217 728.028" fill="#2c94d2"/>
  <polygon points="652.116 507.511 783.499 728.027 526.392 729.023 652.116 507.511" fill="#00b9e0"/>
</svg>